HIERARCHY
ROOT SpineBase
{
  OFFSET 0.000000 0.000000 0.000000
  CHANNELS 6 Xposition Yposition Zposition Zrotation Xrotation Yrotation
  JOINT SpineMid
  {
    OFFSET 0.000000 30.973641 0.000000
    CHANNELS 3 Zrotation Xrotation Yrotation
    JOINT SpineShoulder
    {
      OFFSET -0.092627 22.961207 -0.759662
      CHANNELS 3 Zrotation Xrotation Yrotation
      JOINT Neck
      {
        OFFSET -0.071551 7.585118 -0.570747
        CHANNELS 3 Zrotation Xrotation Yrotation
        JOINT Head
        {
          OFFSET -5.808588 12.522547 2.032195
          CHANNELS 3 Zrotation Xrotation Yrotation
          End Site
          {
            OFFSET 0 0 0
          }
        }
      }
      JOINT ShoulderLeft
      {
        OFFSET -10.798897 -4.049147 13.176543
        CHANNELS 3 Zrotation Xrotation Yrotation
        JOINT ElbowLeft
        {
          OFFSET -4.184544 -21.448955 -14.634172
          CHANNELS 3 Zrotation Xrotation Yrotation
          JOINT WristLeft
          {
            OFFSET 3.879565 -24.368944 -2.799524
            CHANNELS 3 Zrotation Xrotation Yrotation
            JOINT HandLeft
            {
              OFFSET 0.116947 -5.999182 -0.233516
              CHANNELS 3 Zrotation Xrotation Yrotation
              JOINT HandTipLeft
              {
                OFFSET 3.711401 -8.531220 0.950684
                CHANNELS 3 Zrotation Xrotation Yrotation
                End Site
                {
                  OFFSET 0 0 0
                }
              }
              JOINT ThumbLeft
              {
                OFFSET 1.253771 -0.181148 -5.256972
                CHANNELS 3 Zrotation Xrotation Yrotation
                End Site
                {
                  OFFSET 0 0 0
                }
              }
            }
          }
        }
      }
      JOINT ShoulderRight
      {
        OFFSET 10.431711 -3.253686 -12.463574
        CHANNELS 3 Zrotation Xrotation Yrotation
        JOINT ElbowRight
        {
          OFFSET 5.078311 -22.318633 -6.357571
          CHANNELS 3 Zrotation Xrotation Yrotation
          JOINT WristRight
          {
            OFFSET -16.244677 -8.362440 3.690206
            CHANNELS 3 Zrotation Xrotation Yrotation
            JOINT HandRight
            {
              OFFSET -6.388943 0.349822 4.710666
              CHANNELS 3 Zrotation Xrotation Yrotation
              JOINT HandTipRight
              {
                OFFSET -8.491758 -0.477708 -0.658557
                CHANNELS 3 Zrotation Xrotation Yrotation
                End Site
                {
                  OFFSET 0 0 0
                }
              }
              JOINT ThumbRight
              {
                OFFSET 0.235929 6.912038 -0.038275
                CHANNELS 3 Zrotation Xrotation Yrotation
                End Site
                {
                  OFFSET 0 0 0
                }
              }
            }
          }
        }
      }
    }
  }
  JOINT HipLeft
  {
    OFFSET -5.374700 0.057726 1.262094
    CHANNELS 3 Zrotation Xrotation Yrotation
    JOINT KneeLeft
    {
      OFFSET 2.567293 -33.359862 10.661942
      CHANNELS 3 Zrotation Xrotation Yrotation
      JOINT AnkleLeft
      {
        OFFSET 15.836133 -36.134644 5.870017
        CHANNELS 3 Zrotation Xrotation Yrotation
        JOINT FootLeft
        {
          OFFSET -4.251766 -4.879512 -8.849652
          CHANNELS 3 Zrotation Xrotation Yrotation
          End Site
          {
            OFFSET 0 0 0
          }
        }
      }
    }
  }
  JOINT HipRight
  {
    OFFSET 4.594863 1.556881 -7.912673
    CHANNELS 3 Zrotation Xrotation Yrotation
    JOINT KneeRight
    {
      OFFSET 5.596450 -32.269135 -0.303287
      CHANNELS 3 Zrotation Xrotation Yrotation
      JOINT AnkleRight
      {
        OFFSET 9.718343 -34.234215 7.934367
        CHANNELS 3 Zrotation Xrotation Yrotation
        JOINT FootRight
        {
          OFFSET -8.604877 -3.458540 -10.781274
          CHANNELS 3 Zrotation Xrotation Yrotation
          End Site
          {
            OFFSET 0 0 0
          }
        }
      }
    }
  }
}
MOTION
Frames: 16
Frame Time: 0.033333
35.705975 74.409297 305.133690 -0.000000 0.000000 42.622676 -0.000000 0.000000 -42.622676 -0.000000 0.000000 0.000000 -0.000000 0.000000 0.000000 0.000000 0.000000 0.000000 -0.000000 0.000000 0.000000 -0.000000 0.000000 0.000000 -0.000000 0.000000 0.000000 -0.000000 0.000000 0.000000 0.000000 0.000000 0.000000 0.000000 0.000000 0.000000 -0.000000 0.000000 0.000000 -0.000000 0.000000 0.000000 -0.000000 0.000000 0.000000 -0.000000 0.000000 0.000000 0.000000 0.000000 0.000000 0.000000 0.000000 0.000000 -0.000000 0.000000 -42.622676 -0.000000 0.000000 0.000000 -0.000000 0.000000 0.000000 0.000000 0.000000 0.000000 -0.000000 0.000000 -42.622676 -0.000000 0.000000 0.000000 -0.000000 0.000000 0.000000 0.000000 0.000000 0.000000
35.512838 74.360840 305.321931 -0.023902 -0.152037 43.967265 0.122755 0.092833 -43.967396 -0.000000 0.000000 0.000000 0.260552 0.934265 0.388037 0.000000 0.000000 0.000000 -0.000000 0.000000 0.000000 -1.487773 -4.645484 -0.633652 13.325062 8.843706 -1.265561 -18.689908 -7.394809 -2.966636 0.000000 0.000000 0.000000 0.000000 0.000000 0.000000 -0.000000 0.000000 0.000000 -0.000000 0.000000 0.000000 -0.000000 0.000000 0.000000 -0.000000 0.000000 0.000000 0.000000 0.000000 0.000000 0.000000 0.000000 0.000000 0.122755 0.092833 -43.967396 -0.000000 0.000000 0.000000 -2.983760 1.428596 4.021108 0.000000 0.000000 0.000000 0.122755 0.092833 -43.967396 -0.000000 0.000000 0.000000 1.426830 -2.390032 1.691232 0.000000 0.000000 0.000000
35.336929 74.316353 305.462588 -0.022106 -0.257461 44.987802 0.197649 0.166463 -44.988139 -0.000000 0.000000 0.000000 0.514370 1.712094 0.699892 0.000000 0.000000 0.000000 -0.000000 0.000000 0.000000 -3.156027 -8.440142 -1.232194 24.971250 16.171239 -4.653649 -34.683186 -13.366663 -7.475208 0.000000 0.000000 0.000000 0.000000 0.000000 0.000000 -0.000000 0.000000 0.000000 -0.000000 0.000000 0.000000 -0.468265 -0.287976 1.172139 1.815106 0.141084 -1.056419 0.000000 0.000000 0.000000 0.000000 0.000000 0.000000 0.197649 0.166463 -44.988139 0.530993 0.692502 0.386139 -5.943828 1.754736 6.824960 0.000000 0.000000 0.000000 0.197649 0.166463 -44.988139 -0.000000 0.000000 0.000000 2.822585 -4.596148 3.384058 0.000000 0.000000 0.000000
35.178248 74.275835 305.555662 0.005299 -0.316419 45.694488 0.222737 0.224806 -45.694910 -0.000000 0.000000 0.000000 0.764707 2.333667 0.936928 0.000000 0.000000 0.000000 -0.000000 0.000000 0.000000 -4.968969 -11.182494 -1.732821 34.547879 21.571233 -8.741385 -47.440847 -17.580903 -12.577702 0.000000 0.000000 0.000000 0.000000 0.000000 0.000000 -0.918649 0.157909 0.299311 0.917815 -0.162686 -0.296742 -0.603829 -0.357400 1.858726 2.483638 0.129013 -1.813307 0.000000 0.000000 0.000000 0.000000 0.000000 0.000000 -0.695224 0.328799 -45.963841 1.468150 1.555950 0.800994 -8.100118 2.175332 9.186248 0.000000 0.000000 0.000000 0.222737 0.224806 -45.694910 -0.000000 0.000000 0.000000 4.026460 -6.405911 4.905823 0.000000 0.000000 0.000000
35.036795 74.239286 305.601152 0.058219 -0.329070 46.092347 0.196708 0.270154 -46.092643 -0.000000 0.000000 0.000000 1.014231 2.798855 1.100221 0.000000 0.000000 0.000000 -0.000000 0.000000 0.000000 -6.886918 -12.706460 -2.052512 41.840872 25.285944 -12.352837 -56.827422 -20.300022 -17.473466 0.000000 0.000000 0.000000 0.000000 0.000000 0.000000 -1.160472 0.232699 0.386547 1.158886 -0.240474 -0.381759 -0.673806 -0.375274 2.612958 2.988971 0.062961 -2.719027 0.000000 0.000000 0.000000 0.000000 0.000000 0.000000 -1.149962 0.298947 -46.463461 1.904028 2.147729 1.018229 -9.777570 2.421101 10.971981 0.000000 0.000000 0.000000 -0.061913 -0.603990 -46.234996 -0.452424 0.791414 0.144724 4.856522 -7.621209 6.058222 0.000000 0.000000 0.000000
34.912569 74.206707 305.599058 0.136551 -0.295585 46.180685 0.118727 0.303184 -46.180647 -0.000000 0.000000 0.000000 1.265035 3.107026 1.190557 0.000000 0.000000 0.000000 -0.000000 0.000000 0.000000 -8.872006 -12.862237 -2.089743 46.698188 27.714855 -14.693769 -62.845730 -21.979414 -21.635360 0.000000 0.000000 0.000000 0.000000 0.000000 0.000000 -1.371764 0.318953 0.468066 1.369136 -0.330056 -0.460304 -0.678639 -0.340000 3.434886 3.329140 -0.054515 -3.770907 0.000000 0.000000 0.000000 0.000000 0.000000 0.000000 -1.723117 0.193974 -46.661682 2.314030 2.776325 1.209200 -11.024923 2.551604 12.262228 0.000000 0.000000 0.000000 -0.307762 -0.724839 -46.363124 -0.449722 1.018080 0.184903 5.162411 -8.102775 6.672201 0.000000 0.000000 0.000000
34.845321 74.197595 305.488658 0.283671 -0.180677 45.912286 -0.067593 0.329461 -45.911644 -0.000000 0.000000 0.000000 1.558126 3.162834 1.159019 0.000000 0.000000 0.000000 -0.000000 0.000000 0.000000 -12.040337 -12.057669 -1.868596 51.004247 35.970077 -18.229332 -68.616334 -27.469317 -31.993575 0.000000 0.000000 0.000000 0.000000 0.000000 0.000000 -1.592830 0.454162 0.564551 1.588331 -0.469658 -0.551727 -0.572104 -0.203070 4.511094 3.007134 -0.197685 -5.253391 0.000000 0.000000 0.000000 0.000000 0.000000 0.000000 -2.716537 0.006957 -46.579452 2.871374 3.593084 1.418397 -13.561451 3.150858 15.192174 0.000000 0.000000 0.000000 -0.807018 -0.854128 -46.153029 -0.341377 1.353175 0.242030 4.882944 -7.870902 6.936807 0.000000 0.000000 0.000000
34.765216 74.178622 305.370529 0.437521 -0.023760 45.401799 -0.290283 0.328217 -45.400877 -0.000000 0.000000 0.000000 1.795017 3.059086 1.067621 0.000000 0.000000 0.000000 -0.000000 0.000000 0.000000 -12.019987 -9.856185 -1.260849 45.689824 30.190176 -13.563082 -58.468494 -21.249801 -21.103464 0.000000 0.000000 0.000000 0.000000 0.000000 0.000000 -1.705275 0.575469 0.626517 1.698972 -0.593825 -0.609148 -0.600340 -0.132963 6.356905 3.768654 -0.503600 -7.478867 0.000000 0.000000 0.000000 0.000000 0.000000 0.000000 -3.621881 -0.266776 -46.220965 3.276884 4.239534 1.532390 -11.926352 2.339217 13.288903 0.000000 0.000000 0.000000 -1.328325 -0.999806 -45.698861 0.212170 0.944835 0.179397 3.627125 -6.111074 6.451947 0.000000 0.000000 0.000000
34.665589 74.128042 305.371395 0.549182 0.076100 45.340589 -0.440149 0.337141 -45.339658 -0.000000 0.000000 0.000000 2.004961 3.125552 1.056752 0.000000 0.000000 0.000000 -0.000000 0.000000 0.000000 -10.341253 -2.379143 0.607302 46.038120 21.794719 -9.692683 -56.374870 -14.463346 -13.601953 0.000000 0.000000 0.000000 0.000000 0.000000 0.000000 -1.742184 0.706706 0.668989 2.239339 -1.065432 0.238757 -0.694245 0.620125 6.769477 2.928517 -0.863902 -8.504909 0.000000 0.000000 0.000000 0.000000 0.000000 0.000000 -4.247260 -0.412376 -46.269321 3.604507 4.811686 1.673122 -13.884425 3.330773 15.033959 0.000000 0.000000 0.000000 -1.671170 -1.040062 -45.668043 0.324935 1.072816 0.195580 2.361914 -4.492182 5.748543 0.000000 0.000000 0.000000
34.517359 74.079215 305.322927 0.617890 0.211754 44.491957 -0.589170 0.281971 -44.491649 0.813105 0.165472 0.061573 1.466158 2.833418 0.892745 0.000000 0.000000 0.000000 -0.279962 0.856509 -0.626655 -13.928201 3.491205 3.164035 44.227153 4.965797 -2.677672 -48.018771 -2.861813 -2.841605 0.000000 0.000000 0.000000 0.000000 0.000000 0.000000 -2.638678 0.623781 0.643770 2.198258 -1.250504 0.344702 -0.262701 0.972268 6.599311 2.914545 -1.120769 -9.276733 0.000000 0.000000 0.000000 0.000000 0.000000 0.000000 -4.673275 -0.830562 -45.466456 3.656206 5.313628 1.721970 -11.666044 1.765726 12.811783 0.000000 0.000000 0.000000 -1.938125 -1.141486 -44.842220 0.420127 1.295134 0.245879 0.891806 -2.405271 3.982306 0.000000 0.000000 0.000000
34.338212 74.011119 305.264382 0.649104 0.332049 43.492421 -0.699434 0.205870 -43.493045 0.828177 0.253014 0.062882 1.587027 2.578844 0.795641 0.000000 0.000000 0.000000 0.024122 1.143542 -0.920400 -25.337343 10.026985 7.591170 54.026586 -20.630014 5.882109 -60.922775 10.264993 7.173046 0.000000 0.000000 0.000000 0.000000 0.000000 0.000000 -2.812978 0.532961 0.683549 1.968785 -1.370469 0.358623 0.257515 1.135270 5.561730 1.855010 -0.892932 -8.640711 0.000000 0.000000 0.000000 0.000000 0.000000 0.000000 -4.617502 -1.250179 -44.397829 3.353703 5.306793 1.599745 -9.629480 0.686107 10.735907 0.000000 0.000000 0.000000 -2.115360 -1.265352 -43.860213 0.001787 2.041827 0.354042 -1.207826 1.044524 1.116398 0.000000 0.000000 0.000000
34.147177 73.936649 305.218635 0.646245 0.424513 42.698046 -0.762820 0.126264 -42.699599 0.801771 0.351333 0.061197 1.626189 2.278988 0.709964 0.000000 0.000000 0.000000 0.342036 1.362274 -1.180785 -39.706923 15.748722 13.982019 111.629682 -24.138990 30.294041 -122.316847 12.500099 27.554289 0.000000 0.000000 0.000000 0.000000 0.000000 0.000000 -2.938431 0.371109 0.708636 1.867724 -1.315784 0.227466 -0.177327 0.631425 6.436171 2.075045 -0.370573 -9.492554 0.000000 0.000000 0.000000 0.000000 0.000000 0.000000 -4.515870 -1.733671 -43.523948 3.076039 5.484019 1.523579 -8.095541 -0.126656 8.846291 0.000000 0.000000 0.000000 -2.237034 -1.426157 -43.087401 0.016500 2.140708 0.370768 -0.322771 -0.041696 1.103283 0.000000 0.000000 0.000000
33.973255 73.864526 305.127214 0.642788 0.533023 41.572665 0.000959 -0.104167 -41.549477 0.072632 0.016752 0.038316 1.699070 1.950354 0.613984 0.000000 0.000000 0.000000 0.584411 1.458153 -1.376817 -53.532050 21.323466 22.185925 167.611788 -36.252302 86.210333 -150.130243 -8.427176 78.204684 0.000000 0.000000 0.000000 0.000000 0.000000 0.000000 -3.002816 0.054002 0.678230 2.012940 -1.436061 0.883737 0.209134 1.138957 3.066300 -0.060394 -0.038567 -8.366759 0.000000 0.000000 0.000000 0.000000 0.000000 0.000000 -4.366667 -2.221150 -42.313018 2.771150 5.462699 1.378108 -6.913526 -0.113969 7.015814 0.000000 0.000000 0.000000 -2.410578 -1.605987 -41.989780 0.894419 2.190284 0.524004 1.209973 -2.930783 1.215235 0.000000 0.000000 0.000000
33.798838 73.798083 305.113514 0.588258 0.583379 40.951895 0.010588 -0.078711 -40.930731 0.057936 0.022890 0.034897 1.674622 1.817857 0.618123 0.000000 0.000000 0.000000 0.786300 1.451907 -1.468769 -64.507047 21.264405 26.893015 -160.739434 -32.853389 115.310960 -159.389510 -26.530579 128.631693 0.000000 0.000000 0.000000 0.000000 0.000000 0.000000 -2.816470 -0.405712 0.557134 1.014998 -1.143141 0.762713 2.097769 1.822320 1.054221 -1.795190 -0.483578 -6.650471 0.000000 0.000000 0.000000 0.000000 0.000000 0.000000 -3.945887 -2.469164 -41.562742 2.427571 5.159305 1.209662 -6.377967 0.238509 5.973457 0.000000 0.000000 0.000000 -2.452907 -1.764938 -41.389121 1.088241 2.515869 0.637439 5.191020 -8.737815 3.498177 0.000000 0.000000 0.000000
33.667506 73.760855 305.236293 0.494898 0.529142 41.402138 -0.721156 -0.069591 -41.404861 0.593379 0.580928 0.047137 1.239545 1.981292 0.806916 0.000000 0.000000 0.000000 1.074303 1.135430 -1.522651 -70.916688 17.763870 27.016981 -147.289664 -36.107110 126.085265 -157.065162 -13.281566 147.551116 0.000000 0.000000 0.000000 0.000000 0.000000 0.000000 -2.615480 -0.845180 0.439129 -0.489790 -0.778244 0.359898 4.445946 2.396515 -0.785157 -3.618031 -0.946504 -4.786344 0.000000 0.000000 0.000000 0.000000 0.000000 0.000000 -3.289482 -2.192215 -41.871763 2.199475 4.478519 1.074307 -8.782639 1.158481 9.232170 0.000000 0.000000 0.000000 -2.378224 -1.795207 -41.845597 1.260045 2.727011 0.724760 12.584838 -17.730423 9.472239 0.000000 0.000000 0.000000
33.599659 73.751226 305.332307 0.464105 0.491670 42.344744 -0.674204 -0.050766 -42.347034 -0.000000 0.000000 0.000000 1.142866 2.640905 1.004949 0.000000 0.000000 0.000000 0.920392 2.010936 -1.025788 -68.107514 9.907554 18.629780 -152.203364 -47.475886 117.115296 -158.425002 8.702502 140.136284 0.000000 0.000000 0.000000 0.000000 0.000000 0.000000 -1.774412 -0.710148 0.334675 -2.625865 0.154822 -1.098490 7.268982 2.116888 -6.943745 -6.653144 -1.496479 1.521668 0.000000 0.000000 0.000000 0.000000 0.000000 0.000000 -2.965354 -1.762300 -42.769037 2.261061 3.992409 1.062162 -7.139006 1.120085 6.534184 0.000000 0.000000 0.000000 -2.362043 -1.808927 -42.796539 1.447617 2.947828 0.822167 26.895482 -29.351581 23.024704 0.000000 0.000000 0.000000
